<svg width="31" height="26" viewBox="0 0 31 26" fill="none" xmlns="http://www.w3.org/2000/svg">
<path d="M9.4 12.88C10.5733 13.36 11.48 14.1333 12.12 15.2C12.8133 16.2133 13.16 17.44 13.16 18.88C13.16 20.8 12.5467 22.3733 11.32 23.6C10.0933 24.8267 8.57333 25.44 6.76 25.44C4.84 25.44 3.26667 24.8267 2.04 23.6C0.813334 22.3733 0.2 20.8 0.2 18.88C0.2 17.92 0.306667 16.9867 0.52 16.08C0.786667 15.1733 1.26667 13.8133 1.96 12L6.2 0.639997H12.6L9.4 12.88ZM26.36 12.88C27.5333 13.36 28.44 14.1333 29.08 15.2C29.7733 16.2133 30.12 17.44 30.12 18.88C30.12 20.8 29.5067 22.3733 28.28 23.6C27.0533 24.8267 25.5333 25.44 23.72 25.44C21.8 25.44 20.2267 24.8267 19 23.6C17.7733 22.3733 17.16 20.8 17.16 18.88C17.16 17.92 17.2667 16.9867 17.48 16.08C17.7467 15.1733 18.2267 13.8133 18.92 12L23.16 0.639997H29.56L26.36 12.88Z" fill="white"/>
</svg>
